HIERARCHY
ROOT hip
{
	OFFSET 0.000000 0.000000 0.000000 
	CHANNELS 6 Xposition Yposition Zposition Zrotation Yrotation Xrotation
	JOINT abdomen
	{
		OFFSET 0.000000 20.688101 -0.731520 
		CHANNELS 3 Zrotation Xrotation Yrotation
		JOINT chest
		{
			OFFSET 0.000000 11.704300 -0.487680 
			CHANNELS 3 Zrotation Xrotation Yrotation
			JOINT neck
			{
				OFFSET 0.000000 22.189400 -2.194560 
				CHANNELS 3 Zrotation Xrotation Yrotation
				JOINT head
				{
					OFFSET -0.243840 7.071330 1.219200 
					CHANNELS 3 Zrotation Xrotation Yrotation
					JOINT leftEye
					{
						OFFSET 4.145280 8.046740 8.046720 
						CHANNELS 3 Zrotation Xrotation Yrotation
						End Site
						{
							OFFSET 1.000000 0.000000 0.000000 
						}
					}
					JOINT rightEye
					{
						OFFSET -3.657600 8.046740 8.046720 
						CHANNELS 3 Zrotation Xrotation Yrotation
						End Site
						{
							OFFSET 1.000000 0.000000 0.000000 
						}
					}
				}
			}
			JOINT rCollar
			{
				OFFSET -2.682240 19.263399 -4.876800 
				CHANNELS 3 Zrotation Xrotation Yrotation
				JOINT rShldr
				{
					OFFSET -8.778240 -1.950730 1.463040 
					CHANNELS 3 Zrotation Xrotation Yrotation
					JOINT rForeArm
					{
						OFFSET -28.174200 -1.711500 0.487680 
						CHANNELS 3 Zrotation Xrotation Yrotation
						JOINT rHand
						{
							OFFSET -22.587900 0.773209 7.071360 
							CHANNELS 3 Zrotation Xrotation Yrotation
							JOINT rThumb1
							{
								OFFSET -1.219200 -0.487915 3.413760 
								CHANNELS 3 Zrotation Xrotation Yrotation
								JOINT rThumb2
								{
									OFFSET -3.370350 -0.524490 3.413760 
									CHANNELS 3 Zrotation Xrotation Yrotation
									End Site
									{
										OFFSET -1.782710 -1.182140 1.430490 
									}
								}
							}
							JOINT rIndex1
							{
								OFFSET -7.759470 0.938293 5.608320 
								CHANNELS 3 Zrotation Xrotation Yrotation
								JOINT rIndex2
								{
									OFFSET -2.540570 -0.884171 1.565380 
									CHANNELS 3 Zrotation Xrotation Yrotation
									End Site
									{
										OFFSET -1.625190 -0.234802 1.165020 
									}
								}
							}
							JOINT rMid1
							{
								OFFSET -8.247140 1.182130 3.413760 
								CHANNELS 3 Zrotation Xrotation Yrotation
								JOINT rMid2
								{
									OFFSET -3.101650 -0.590103 1.064700 
									CHANNELS 3 Zrotation Xrotation Yrotation
									End Site
									{
										OFFSET -2.485470 -0.328903 0.837420 
									}
								}
							}
							JOINT rRing1
							{
								OFFSET -8.828220 0.546677 1.516780 
								CHANNELS 3 Zrotation Xrotation Yrotation
								JOINT rRing2
								{
									OFFSET -2.609340 -0.819778 -0.019849 
									CHANNELS 3 Zrotation Xrotation Yrotation
									End Site
									{
										OFFSET -2.338420 -0.294052 0.168128 
									}
								}
							}
							JOINT rPinky1
							{
								OFFSET -8.272020 -0.047791 -0.458400 
								CHANNELS 3 Zrotation Xrotation Yrotation
								JOINT rPinky2
								{
									OFFSET -1.827340 -0.647385 -0.700984 
									CHANNELS 3 Zrotation Xrotation Yrotation
									End Site
									{
										OFFSET -1.692250 -0.517670 -0.607171 
									}
								}
							}
						}
					}
				}
			}
			JOINT lCollar
			{
				OFFSET 2.682240 19.263399 -4.876800 
				CHANNELS 3 Zrotation Xrotation Yrotation
				JOINT lShldr
				{
					OFFSET 8.778240 -1.950730 1.463040 
					CHANNELS 3 Zrotation Xrotation Yrotation
					JOINT lForeArm
					{
						OFFSET 28.174200 -1.711500 0.487680 
						CHANNELS 3 Zrotation Xrotation Yrotation
						JOINT lHand
						{
							OFFSET 22.587900 0.773209 7.071360 
							CHANNELS 3 Zrotation Xrotation Yrotation
							JOINT lThumb1
							{
								OFFSET 1.219200 -0.487915 3.413760 
								CHANNELS 3 Zrotation Xrotation Yrotation
								JOINT lThumb2
								{
									OFFSET 3.370350 -0.524490 3.413760 
									CHANNELS 3 Zrotation Xrotation Yrotation
									End Site
									{
										OFFSET 1.782710 -1.182140 1.430490 
									}
								}
							}
							JOINT lIndex1
							{
								OFFSET 7.759470 0.938293 5.608320 
								CHANNELS 3 Zrotation Xrotation Yrotation
								JOINT lIndex2
								{
									OFFSET 2.540570 -0.884171 1.565380 
									CHANNELS 3 Zrotation Xrotation Yrotation
									End Site
									{
										OFFSET 1.625190 -0.234802 1.165020 
									}
								}
							}
							JOINT lMid1
							{
								OFFSET 8.247140 1.182130 3.413760 
								CHANNELS 3 Zrotation Xrotation Yrotation
								JOINT lMid2
								{
									OFFSET 3.101650 -0.590103 1.064700 
									CHANNELS 3 Zrotation Xrotation Yrotation
									End Site
									{
										OFFSET 2.485470 -0.328903 0.837420 
									}
								}
							}
							JOINT lRing1
							{
								OFFSET 8.828220 0.546677 1.516780 
								CHANNELS 3 Zrotation Xrotation Yrotation
								JOINT lRing2
								{
									OFFSET 2.609340 -0.819778 -0.019849 
									CHANNELS 3 Zrotation Xrotation Yrotation
									End Site
									{
										OFFSET 2.338420 -0.294052 0.168128 
									}
								}
							}
							JOINT lPinky1
							{
								OFFSET 8.272020 -0.047791 -0.458400 
								CHANNELS 3 Zrotation Xrotation Yrotation
								JOINT lPinky2
								{
									OFFSET 1.827340 -0.647385 -0.700984 
									CHANNELS 3 Zrotation Xrotation Yrotation
									End Site
									{
										OFFSET 1.692250 -0.517670 -0.607171 
									}
								}
							}
						}
					}
				}
			}
		}
	}
	JOINT rButtock
	{
		OFFSET -8.778240 4.350840 1.219200 
		CHANNELS 3 Zrotation Xrotation Yrotation
		JOINT rThigh
		{
			OFFSET 0.000000 -1.706870 -2.194560 
			CHANNELS 3 Zrotation Xrotation Yrotation
			JOINT rShin
			{
				OFFSET 0.000000 -36.819901 0.731520 
				CHANNELS 3 Zrotation Xrotation Yrotation
				JOINT rFoot
				{
					OFFSET 0.731520 -45.110401 -5.120640 
					CHANNELS 3 Zrotation Xrotation Yrotation
					End Site
					{
						OFFSET -1.122100 -3.699640 12.103000 
					}
				}
			}
		}
	}
	JOINT lButtock
	{
		OFFSET 8.778240 4.350840 1.219200 
		CHANNELS 3 Zrotation Xrotation Yrotation
		JOINT lThigh
		{
			OFFSET 0.000000 -1.706870 -2.194560 
			CHANNELS 3 Zrotation Xrotation Yrotation
			JOINT lShin
			{
				OFFSET 0.000000 -36.819901 0.731520 
				CHANNELS 3 Zrotation Xrotation Yrotation
				JOINT lFoot
				{
					OFFSET -0.731520 -45.110401 -5.120640 
					CHANNELS 3 Zrotation Xrotation Yrotation
					End Site
					{
						OFFSET 1.122100 -3.699640 12.103000 
					}
				}
			}
		}
	}
}
MOTION
Frames: 9
Frame Time: 0.040000
0.000000 0.000000 -190.000000 0.000000 0.000000 0.000000 -1.449500 12.633500 -1.100400 -0.010200 -0.011800 0.049800 -9.214800 -1.465200 -4.035000 19.580799 -8.198600 -5.376300 0.000000 0.000000 0.000000 0.000000 0.000000 0.000000 0.000000 0.000000 0.000000 78.825897 29.062401 -0.557100 -11.369000 -7.546400 31.980499 8.094300 29.427500 5.279600 0.000000 0.000000 0.000000 0.000000 0.000000 0.000000 0.000000 0.000000 0.000000 0.023400 0.013400 0.013600 0.000000 0.000000 0.000000 0.029800 0.008500 0.015700 0.000000 0.000000 0.000000 0.015400 0.020700 0.035000 0.000000 0.000000 0.000000 0.027500 -0.022100 -0.029200 0.000000 0.000000 0.000000 -80.443802 21.587999 14.471200 10.796900 -6.950300 -18.882601 -14.560400 3.459200 -11.912100 0.000000 0.000000 0.000000 0.000000 0.000000 0.000000 0.000000 0.000000 0.000000 -0.013200 0.006100 -0.005100 0.000000 0.000000 0.000000 -0.032700 0.030000 -0.004900 0.000000 0.000000 0.000000 -0.029900 0.004100 -0.032300 0.000000 0.000000 0.000000 -0.003800 -0.018400 0.013700 0.000000 0.000000 0.000000 -5.312800 -12.324900 -0.409900 -0.120900 17.632200 -2.553000 -1.187600 -8.520300 -7.815900 0.000000 0.000000 0.000000 -0.854200 -19.127600 -13.086600 5.020900 36.651199 -0.643800 3.125900 -11.577500 5.974400 
0.000000 0.000000 -190.000000 0.000000 0.000000 0.000000 -0.325900 12.819000 -0.919000 -0.010200 -0.011800 0.049700 -8.435800 1.028000 -4.128300 18.285900 -6.776500 -5.498900 0.000000 0.000000 0.000000 0.000000 0.000000 0.000000 0.000000 0.000000 0.000000 74.507500 29.911301 -4.359900 -10.834200 -10.336800 41.844002 8.233000 34.082802 5.757400 0.000000 0.000000 0.000000 0.000000 0.000000 0.000000 0.000000 0.000000 0.000000 0.023400 0.013300 0.013600 0.000000 0.000000 0.000000 0.029700 0.008500 0.015700 0.000000 0.000000 0.000000 0.015300 0.020700 0.034900 0.000000 0.000000 0.000000 0.027500 -0.022100 -0.029100 0.000000 0.000000 0.000000 -81.260399 22.637600 14.525600 10.487100 -7.338500 -18.698700 -15.078900 4.174700 -13.014500 0.000000 0.000000 0.000000 0.000000 0.000000 0.000000 0.000000 0.000000 0.000000 -0.013200 0.006100 -0.005100 0.000000 0.000000 0.000000 -0.032700 0.030000 -0.004900 0.000000 0.000000 0.000000 -0.029900 0.004100 -0.032200 0.000000 0.000000 0.000000 -0.003800 -0.018300 0.013700 0.000000 0.000000 0.000000 -1.432600 -14.308300 0.223800 0.044200 17.140100 -2.597500 -1.149600 -8.558600 -7.771700 0.000000 0.000000 0.000000 3.211600 -18.618999 -15.698200 5.616400 36.521000 -0.616600 3.334400 -11.681100 6.928600 
0.000000 0.000000 -190.000000 0.000000 0.000000 0.000000 -0.491500 12.919500 -0.980000 -0.010200 -0.011800 0.049700 -8.856600 -0.159300 -4.026000 19.450199 -8.158300 -5.381000 0.000000 0.000000 0.000000 0.000000 0.000000 0.000000 0.000000 0.000000 0.000000 79.173203 26.732500 -1.254000 -11.248700 -7.797600 33.066799 8.115600 29.113001 5.371300 0.000000 0.000000 0.000000 0.000000 0.000000 0.000000 0.000000 0.000000 0.000000 0.023400 0.013300 0.013600 0.000000 0.000000 0.000000 0.029700 0.008500 0.015700 0.000000 0.000000 0.000000 0.015300 0.020700 0.034900 0.000000 0.000000 0.000000 0.027500 -0.022100 -0.029100 0.000000 0.000000 0.000000 -80.642502 22.038300 15.735900 10.644400 -7.228200 -18.468300 -14.835100 3.510200 -12.479500 0.000000 0.000000 0.000000 0.000000 0.000000 0.000000 0.000000 0.000000 0.000000 -0.013200 0.006100 -0.005100 0.000000 0.000000 0.000000 -0.032700 0.030000 -0.004900 0.000000 0.000000 0.000000 -0.029900 0.004100 -0.032200 0.000000 0.000000 0.000000 -0.003800 -0.018300 0.013700 0.000000 0.000000 0.000000 -1.244200 -11.209000 1.370400 -0.344200 18.150900 -2.612400 -1.109600 -8.515400 -7.629900 0.000000 0.000000 0.000000 2.563600 -18.624701 -14.585000 5.454200 36.924599 -0.582300 3.280200 -11.629000 6.433200 
0.000000 0.000000 -190.000000 0.000000 0.000000 0.000000 -0.905400 14.729800 -1.776100 -0.010200 -0.011800 0.049600 -7.395400 -2.313400 -3.502500 19.261600 -8.884500 -5.374500 0.000000 0.000000 0.000000 0.000000 0.000000 0.000000 0.000000 0.000000 0.000000 80.550400 27.679899 -1.345500 -10.920400 -8.299700 34.981400 8.562900 30.449400 5.787800 0.000000 0.000000 0.000000 0.000000 0.000000 0.000000 0.000000 0.000000 0.000000 0.023400 0.013300 0.013600 0.000000 0.000000 0.000000 0.029700 0.008500 0.015700 0.000000 0.000000 0.000000 0.015300 0.020700 0.034900 0.000000 0.000000 0.000000 0.027400 -0.022100 -0.029100 0.000000 0.000000 0.000000 -81.056801 24.598101 16.717600 10.409500 -7.675700 -18.673300 -15.682600 3.565700 -13.809600 0.000000 0.000000 0.000000 0.000000 0.000000 0.000000 0.000000 0.000000 0.000000 -0.013200 0.006100 -0.005100 0.000000 0.000000 0.000000 -0.032600 0.029900 -0.004900 0.000000 0.000000 0.000000 -0.029800 0.004100 -0.032200 0.000000 0.000000 0.000000 -0.003800 -0.018300 0.013700 0.000000 0.000000 0.000000 1.884900 -1.498500 3.157400 -0.333900 29.912901 -2.853900 -0.895500 -8.422100 -7.429800 0.000000 0.000000 0.000000 7.308600 -17.532000 -16.661600 6.437700 37.821499 0.048400 3.735900 -11.863000 7.706100 
0.000000 0.000000 -190.000000 0.000000 0.000000 0.000000 -1.249300 12.079200 -1.458200 -0.010200 -0.011800 0.049600 -7.461600 -2.868700 -3.571300 21.698900 -8.972100 -5.311200 0.000000 0.000000 0.000000 0.000000 0.000000 0.000000 0.000000 0.000000 0.000000 80.931099 29.442699 -0.920300 -10.915200 -8.265700 33.302101 8.567400 31.533199 5.635800 0.000000 0.000000 0.000000 0.000000 0.000000 0.000000 0.000000 0.000000 0.000000 0.023400 0.013300 0.013600 0.000000 0.000000 0.000000 0.029700 0.008500 0.015700 0.000000 0.000000 0.000000 0.015300 0.020700 0.034900 0.000000 0.000000 0.000000 0.027400 -0.022100 -0.029100 0.000000 0.000000 0.000000 -81.163803 24.124300 16.754000 10.006900 -7.591100 -18.195601 -15.967600 4.687100 -14.923000 0.000000 0.000000 0.000000 0.000000 0.000000 0.000000 0.000000 0.000000 0.000000 -0.013200 0.006100 -0.005100 0.000000 0.000000 0.000000 -0.032600 0.029900 -0.004900 0.000000 0.000000 0.000000 -0.029800 0.004100 -0.032200 0.000000 0.000000 0.000000 -0.003800 -0.018300 0.013700 0.000000 0.000000 0.000000 1.931200 5.346400 3.211500 0.680100 30.282101 -2.757600 -0.844300 -8.365400 -7.461100 0.000000 0.000000 0.000000 3.816700 -15.358000 -13.642900 5.703000 13.892600 -0.655900 3.413000 -11.212000 6.958400 
0.000000 0.000000 -190.000000 0.000000 0.000000 0.000000 -1.420500 12.262800 -2.503700 -0.010200 -0.011700 0.049500 -7.622800 -0.799500 -3.545200 19.971001 -8.549100 -5.322000 0.000000 0.000000 0.000000 0.000000 0.000000 0.000000 0.000000 0.000000 0.000000 75.128098 30.418200 -7.659900 -10.689600 -9.980400 41.140598 8.766200 37.947300 4.564100 0.000000 0.000000 0.000000 0.000000 0.000000 0.000000 0.000000 0.000000 0.000000 0.023300 0.013300 0.013500 0.000000 0.000000 0.000000 0.029600 0.008500 0.015600 0.000000 0.000000 0.000000 0.015300 0.020600 0.034800 0.000000 0.000000 0.000000 0.027300 -0.022000 -0.029000 0.000000 0.000000 0.000000 -80.943802 24.106400 11.906400 10.200400 -7.255200 -19.021000 -15.893600 4.342400 -14.829200 0.000000 0.000000 0.000000 0.000000 0.000000 0.000000 0.000000 0.000000 0.000000 -0.013100 0.006100 -0.005100 0.000000 0.000000 0.000000 -0.032500 0.029900 -0.004900 0.000000 0.000000 0.000000 -0.029800 0.004100 -0.032100 0.000000 0.000000 0.000000 -0.003800 -0.018300 0.013700 0.000000 0.000000 0.000000 -1.403900 -1.159200 0.008900 2.258600 30.062700 -2.681400 -0.788900 -8.499800 -7.660300 0.000000 0.000000 0.000000 10.308700 -19.141600 -7.608000 6.904900 28.431499 -0.929000 3.686100 -12.537600 8.950100 
0.000000 0.000000 -190.000000 0.000000 0.000000 0.000000 -5.973900 14.597800 -4.595200 -0.029900 -0.053300 0.054900 -10.016000 3.751800 -4.383400 7.101700 2.692900 -3.886300 0.000000 0.000000 0.000000 0.000000 0.000000 0.000000 0.000000 0.000000 0.000000 78.628197 37.831402 -2.360300 -14.783200 -9.000000 24.308599 1.217600 9.683900 1.285200 0.000000 0.000000 0.000000 0.000000 0.000000 0.000000 0.000000 0.000000 0.000000 0.025300 0.009500 0.017600 0.000000 0.000000 0.000000 0.005900 0.036700 0.013000 0.000000 0.000000 0.000000 0.013500 0.006700 0.035500 0.000000 0.000000 0.000000 0.016800 -0.027500 -0.036600 0.000000 0.000000 0.000000 -72.729301 16.390100 10.074800 9.489300 -4.753200 -28.327101 -5.459800 8.924000 -3.917200 0.000000 0.000000 0.000000 0.000000 0.000000 0.000000 0.000000 0.000000 0.000000 -0.007100 0.025400 -0.015400 0.000000 0.000000 0.000000 -0.006700 0.024000 -0.008600 0.000000 0.000000 0.000000 -0.036100 0.020200 -0.009800 0.000000 0.000000 0.000000 -0.024600 -0.023200 0.020300 0.000000 0.000000 0.000000 3.565100 -13.936900 5.795400 -9.601500 31.579800 2.756400 -2.313800 -11.362000 -7.104600 0.000000 0.000000 0.000000 12.544600 -25.205400 4.835900 3.506300 36.125702 -7.033200 2.451400 -8.427900 -0.113800 
0.000000 0.000000 -190.000000 0.000000 0.000000 0.000000 -15.436500 15.163800 -6.058500 -0.029800 -0.053200 0.054800 -6.440300 4.014500 -4.557300 6.679300 2.002800 -0.664100 0.000000 0.000000 0.000000 0.000000 0.000000 0.000000 0.000000 0.000000 0.000000 78.793602 35.672298 -0.623800 -16.870399 -8.576200 24.661900 1.215800 9.197000 1.290300 0.000000 0.000000 0.000000 0.000000 0.000000 0.000000 0.000000 0.000000 0.000000 0.025200 0.009500 0.017600 0.000000 0.000000 0.000000 0.005900 0.036600 0.012900 0.000000 0.000000 0.000000 0.013400 0.006700 0.035400 0.000000 0.000000 0.000000 0.016700 -0.027400 -0.036500 0.000000 0.000000 0.000000 -76.399399 20.846600 7.237700 6.885100 -6.496200 -12.769400 -5.895800 10.677000 -4.154400 0.000000 0.000000 0.000000 0.000000 0.000000 0.000000 0.000000 0.000000 0.000000 -0.007100 0.025300 -0.015300 0.000000 0.000000 0.000000 -0.006700 0.023900 -0.008600 0.000000 0.000000 0.000000 -0.036000 0.020100 -0.009800 0.000000 0.000000 0.000000 -0.024600 -0.023100 0.020200 0.000000 0.000000 0.000000 -0.634400 -5.244700 0.792400 -9.965800 33.361099 2.460100 -2.261400 -11.542700 -7.098400 0.000000 0.000000 0.000000 15.817600 -28.863501 23.160299 5.027500 48.603001 -7.820600 2.110200 -8.579300 -0.349200 
0.000000 0.000000 -190.000000 0.000000 0.000000 0.000000 -15.992700 14.822500 -4.649500 -0.029800 -0.053200 0.054800 -5.544100 3.968200 -4.948800 6.064800 7.252000 0.170400 0.000000 0.000000 0.000000 0.000000 0.000000 0.000000 0.000000 0.000000 0.000000 81.513397 39.273701 -4.723400 -16.264099 -8.715300 25.096300 1.325000 8.211800 1.039100 0.000000 0.000000 0.000000 0.000000 0.000000 0.000000 0.000000 0.000000 0.000000 0.025200 0.009500 0.017600 0.000000 0.000000 0.000000 0.005900 0.036600 0.012900 0.000000 0.000000 0.000000 0.013400 0.006700 0.035400 0.000000 0.000000 0.000000 0.016700 -0.027400 -0.036500 0.000000 0.000000 0.000000 -76.710701 21.557100 7.071500 5.174100 -5.466700 -7.539300 -6.509100 11.350000 -5.881000 0.000000 0.000000 0.000000 0.000000 0.000000 0.000000 0.000000 0.000000 0.000000 -0.007100 0.025300 -0.015300 0.000000 0.000000 0.000000 -0.006700 0.023900 -0.008600 0.000000 0.000000 0.000000 -0.036000 0.020100 -0.009800 0.000000 0.000000 0.000000 -0.024600 -0.023100 0.020200 0.000000 0.000000 0.000000 0.443000 18.287701 7.523500 -5.657100 29.255501 1.832000 -2.130500 -11.132100 -6.959700 0.000000 0.000000 0.000000 20.875799 -37.320099 40.169601 15.107300 51.208900 -29.807301 0.784800 -7.821400 -2.046100 
